<svg width="401" height="291" viewBox="0 0 401 291" fill="none" xmlns="http://www.w3.org/2000/svg">
<path d="M352 32C352 28.0444 350.856 24.1776 348.714 20.8886C346.571 17.5996 343.525 15.0362 339.962 13.5224C336.399 12.0087 332.478 11.6126 328.696 12.3843C324.913 13.156 321.439 15.0608 318.711 17.8579C315.984 20.6549 314.127 24.2186 313.375 28.0982C312.622 31.9778 313.008 35.9992 314.484 39.6537C315.96 43.3082 318.46 46.4318 321.666 48.6294C324.873 50.827 328.643 52 332.5 52C337.672 52 342.632 49.8929 346.289 46.1421C349.946 42.3914 352 37.3043 352 32V32Z" fill="url(#paint0_linear)"/>
<path d="M401 254.5C401 247.281 398.918 240.224 395.017 234.222C391.116 228.219 385.572 223.541 379.085 220.778C372.598 218.016 365.461 217.293 358.574 218.701C351.688 220.11 345.362 223.586 340.398 228.691C335.433 233.795 332.052 240.299 330.682 247.379C329.312 254.46 330.015 261.798 332.702 268.468C335.389 275.137 339.939 280.838 345.777 284.849C351.615 288.859 358.479 291 365.5 291C374.915 291 383.945 287.154 390.602 280.309C397.26 273.464 401 264.18 401 254.5V254.5Z" fill="url(#paint1_linear)"/>
<path d="M103 53C103 42.5176 99.9796 32.2706 94.3207 23.5548C88.6618 14.839 80.6186 8.04585 71.2082 4.03441C61.7978 0.022964 51.4429 -1.02661 41.4529 1.0184C31.4628 3.06342 22.2864 8.11118 15.084 15.5234C7.88161 22.9355 2.97674 32.3792 0.989599 42.6602C-0.997539 52.9412 0.0222808 63.5977 3.92019 73.2822C7.8181 82.9667 14.419 91.2442 22.8882 97.0679C31.3573 102.892 41.3143 106 51.5 106C65.1587 106 78.2579 100.416 87.916 90.4767C97.5741 80.5372 103 67.0565 103 53V53Z" fill="url(#paint2_linear)"/>
<path d="M147 252C147 247.253 145.622 242.613 143.04 238.666C140.457 234.72 136.787 231.643 132.493 229.827C128.199 228.01 123.474 227.535 118.915 228.461C114.357 229.387 110.17 231.673 106.883 235.029C103.596 238.386 101.358 242.662 100.452 247.318C99.5448 251.973 100.01 256.799 101.789 261.184C103.567 265.57 106.58 269.318 110.444 271.955C114.309 274.592 118.852 276 123.5 276C129.733 276 135.71 273.471 140.117 268.971C144.524 264.47 147 258.365 147 252V252Z" fill="url(#paint3_linear)"/>
<defs>
<linearGradient id="paint0_linear" x1="363.382" y1="4.55891" x2="316.123" y2="56.6992" gradientUnits="userSpaceOnUse">
<stop stop-color="#57E0F4"/>
<stop offset="0.464373" stop-color="#7F9DF4"/>
<stop offset="1" stop-color="#AE00BE"/>
<stop offset="1" stop-color="#9849D7"/>
</linearGradient>
<linearGradient id="paint1_linear" x1="421.722" y1="204.42" x2="335.454" y2="299.365" gradientUnits="userSpaceOnUse">
<stop stop-color="#57E0F4"/>
<stop offset="0.464373" stop-color="#7F9DF4"/>
<stop offset="1" stop-color="#AE00BE"/>
<stop offset="1" stop-color="#9849D7"/>
</linearGradient>
<linearGradient id="paint2_linear" x1="133.061" y1="-19.7189" x2="7.7841" y2="118.03" gradientUnits="userSpaceOnUse">
<stop stop-color="#57E0F4"/>
<stop offset="0.464373" stop-color="#7F9DF4"/>
<stop offset="1" stop-color="#AE00BE"/>
<stop offset="1" stop-color="#9849D7"/>
</linearGradient>
<linearGradient id="paint3_linear" x1="160.717" y1="219.071" x2="104.031" y2="281.88" gradientUnits="userSpaceOnUse">
<stop stop-color="#57E0F4"/>
<stop offset="0.464373" stop-color="#7F9DF4"/>
<stop offset="1" stop-color="#AE00BE"/>
<stop offset="1" stop-color="#9849D7"/>
</linearGradient>
</defs>
</svg>
