<svg width="61" height="61" viewBox="0 0 61 61" fill="none" xmlns="http://www.w3.org/2000/svg">
<g clip-path="url(#clip0)">
<path d="M29.6413 5.84917C43.193 5.43836 54.5524 16.1293 54.9632 29.681C55.374 43.2327 44.6831 54.5922 31.1313 55.003C17.5796 55.4138 6.22022 44.7228 5.80942 31.1711C5.39861 17.6194 16.0896 6.25997 29.6413 5.84917ZM29.4923 0.933785C13.2052 1.42752 0.400304 15.033 0.894035 31.3201C1.38777 47.6072 14.9932 60.4121 31.2804 59.9183C47.5675 59.4246 60.3723 45.8191 59.8786 29.532C59.3849 13.2449 45.7794 0.440054 29.4923 0.933785ZM25.3219 25.6597L20.4066 25.8087L20.5556 30.7241L25.4709 30.5751L25.918 45.3212L33.291 45.0977L32.844 30.3516L37.317 30.216L37.6104 25.2872L32.695 25.4362L32.6329 23.3889C32.5973 22.2142 32.8192 21.7425 33.9546 21.7081L37.4986 21.6006L37.3124 15.4564L31.4041 15.6355C26.9852 15.7695 25.0829 17.7754 25.1959 21.5013L25.3219 25.6597Z" fill="url(#paint0_linear)"/>
</g>
<defs>
<linearGradient id="paint0_linear" x1="-28.281" y1="-16.0955" x2="52.3714" y2="68.1019" gradientUnits="userSpaceOnUse">
<stop stop-color="#57E0F4"/>
<stop offset="0.560132" stop-color="#7F9DF4"/>
<stop offset="1" stop-color="#AE00BE"/>
</linearGradient>
<clipPath id="clip0">
<rect width="59.0117" height="59.0117" fill="white" transform="translate(0 1.82782) rotate(-1.73634)"/>
</clipPath>
</defs>
</svg>
