<svg width="24" height="25" viewBox="0 0 24 25" fill="none" xmlns="http://www.w3.org/2000/svg">
<path d="M12.164 7.19136C11.014 7.38306 10.462 8.42889 10.933 9.52792C11.431 10.6872 12.854 11.4299 14.027 11.1368C15.066 10.8789 15.546 9.88021 15.096 8.83337C14.625 7.73435 13.312 6.99966 12.164 7.19136ZM13.648 10.2004L13.752 10.4302L13.533 10.4754L13.436 10.2556C13.21 10.2967 12.954 10.2907 12.717 10.2285L12.652 9.84006C12.847 9.87017 13.09 9.89827 13.275 9.86014L13.4 9.81898C13.621 9.70958 13.552 9.43056 13.224 9.36432C12.979 9.31012 12.331 9.35027 12.089 8.81029C11.953 8.50517 12.054 8.18701 12.445 8.04147L12.337 7.80159L12.554 7.75643L12.658 7.98627C12.817 7.96018 13.003 7.95014 13.221 7.96921L13.308 8.35362C13.138 8.33254 12.955 8.31247 12.796 8.34559L12.736 8.36165C12.427 8.44395 12.526 8.73803 12.8 8.80929C13.253 8.91467 13.794 8.9488 14.008 9.42354C14.181 9.80995 13.98 10.0739 13.648 10.2004ZM23.96 11.2613L20.194 3.01105C14.016 7.02977 7.187 2.69188 2.243 7.48142L6.008 15.7316C11.306 11.2231 18.527 15.4928 23.96 11.2613ZM21.157 9.40246C20.782 9.92537 20.504 10.5236 20.338 11.1499C16.745 12.2479 12.447 10.9481 8.32 12.3954C7.653 12.0401 6.817 11.8173 6.131 11.8374L4.996 9.34123C5.428 8.8143 5.768 8.01136 5.914 7.23954C9.313 6.00903 13.566 7.39511 18.112 5.83338C18.633 6.18066 19.242 6.43258 19.842 6.55704L21.157 9.40246ZM24 15.0652C17.143 19.0207 11.601 13.636 4.5 21.0772L0 11.0706L1.402 9.60219L5.209 18.0391L5.207 18.0461C12.652 12.4306 16.402 16.8658 23.316 13.4663C23.61 14.1167 23.881 14.8032 24 15.0652Z" fill="black"/>
</svg>
