<svg class="logo-name" width="344" height="48" viewBox="0 0 344 48" fill="none" xmlns="http://www.w3.org/2000/svg">
<g clip-path="url(#clip0)">
<path d="M31.5665 31.7012V44.3084C31.5665 45.1321 31.2386 45.9221 30.6548 46.5045C30.0711 47.0869 29.2793 47.4142 28.4538 47.4142C27.6283 47.4142 26.8365 47.0869 26.2528 46.5045C25.6691 45.9221 25.3411 45.1321 25.3411 44.3084V31.7012C25.3411 29.1719 24.3341 26.7462 22.5417 24.9578C20.7492 23.1693 18.3182 22.1646 15.7832 22.1646C13.2483 22.1646 10.8173 23.1693 9.02481 24.9578C7.23236 26.7462 6.22537 29.1719 6.22537 31.7012V44.3084C6.22537 45.1321 5.89743 45.9221 5.31368 46.5045C4.72994 47.0869 3.93822 47.4142 3.11268 47.4142C2.28715 47.4142 1.49543 47.0869 0.911684 46.5045C0.327943 45.9221 0 45.1321 0 44.3084L0 31.7012C0 27.5245 1.66287 23.5189 4.62281 20.5656C7.58274 17.6123 11.5973 15.9531 15.7832 15.9531C19.9692 15.9531 23.9838 17.6123 26.9437 20.5656C29.9036 23.5189 31.5665 27.5245 31.5665 31.7012Z" fill="white"/>
<path d="M66.826 31.7012C66.8226 32.109 66.7384 32.5121 66.5784 32.8874C66.4184 33.2627 66.1857 33.6028 65.8936 33.8881C65.6015 34.1734 65.2558 34.3984 64.8764 34.55C64.497 34.7017 64.0913 34.7771 63.6825 34.7719H41.9993C42.6477 36.655 43.8686 38.2895 45.492 39.4477C47.1153 40.6059 49.0603 41.2301 51.0559 41.2334C53.5567 41.2693 56.0095 40.5473 58.0903 39.1629C59.5367 38.2198 61.4843 39.0971 62.2405 40.6061C62.9967 42.1151 62.1746 43.804 60.7281 44.7471C56.5823 47.5063 53.3729 47.4449 51.0559 47.4449C46.87 47.4449 42.8554 45.7857 39.8955 42.8324C36.9356 39.879 35.2727 35.8735 35.2727 31.6968C35.2727 27.5202 36.9356 23.5146 39.8955 20.5612C42.8554 17.6079 46.87 15.9487 51.0559 15.9487C58.6662 15.9531 66.826 21.4715 66.826 31.7012ZM41.9861 28.5647H60.161C58.842 24.1781 54.8149 22.1646 51.0427 22.1646C49.0577 22.17 47.123 22.788 45.5039 23.9339C43.8848 25.0797 42.6606 26.6973 41.9993 28.5647H41.9861Z" fill="white"/>
<path d="M96.1371 19.0895V34.8815C95.9657 38.1353 94.5495 41.1994 92.1805 43.442C89.8116 45.6846 86.6705 46.9349 83.405 46.9349C80.1395 46.9349 76.9984 45.6846 74.6295 43.442C72.2605 41.1994 70.8443 38.1353 70.6729 34.8815V19.0895C70.6729 18.2658 71.0008 17.4759 71.5846 16.8934C72.1683 16.311 72.96 15.9838 73.7856 15.9838C74.6111 15.9838 75.4028 16.311 75.9866 16.8934C76.5703 17.4759 76.8983 18.2658 76.8983 19.0895V34.7762C76.8983 36.4981 77.5838 38.1494 78.804 39.3669C80.0243 40.5844 81.6793 41.2685 83.405 41.2685C85.1307 41.2685 86.7857 40.5844 88.006 39.3669C89.2262 38.1494 89.9117 36.4981 89.9117 34.7762V19.0895C89.9117 18.2658 90.2397 17.4759 90.8234 16.8934C91.4072 16.311 92.1989 15.9838 93.0244 15.9838C93.85 15.9838 94.6417 16.311 95.2254 16.8934C95.8092 17.4759 96.1371 18.2658 96.1371 19.0895Z" fill="white"/>
<path d="M118.647 19.0895C118.645 19.9206 118.313 20.7171 117.724 21.3048C117.135 21.8925 116.336 22.2237 115.503 22.226C112.97 22.2283 110.541 23.2341 108.751 25.0223C106.96 26.8105 105.954 29.2348 105.954 31.7626V44.3742C105.954 45.1979 105.626 45.9878 105.043 46.5703C104.459 47.1527 103.667 47.4799 102.842 47.4799C102.016 47.4799 101.224 47.1527 100.641 46.5703C100.057 45.9878 99.729 45.1979 99.729 44.3742V31.7626C99.7313 27.5866 101.395 23.5824 104.354 20.6295C107.314 17.6767 111.327 16.0168 115.512 16.0145C115.922 16.0069 116.328 16.0809 116.709 16.232C117.089 16.3832 117.435 16.6086 117.727 16.895C118.019 17.1813 118.251 17.5229 118.409 17.8998C118.567 18.2766 118.648 18.6811 118.647 19.0895Z" fill="white"/>
<path d="M118.458 31.7012C118.458 28.5865 119.384 25.5418 121.118 22.952C122.852 20.3623 125.317 18.3438 128.201 17.1519C131.085 15.9599 134.259 15.6481 137.32 16.2557C140.382 16.8633 143.194 18.3632 145.402 20.5656C147.609 22.768 149.112 25.5741 149.721 28.6289C150.33 31.6837 150.018 34.8501 148.823 37.7277C147.628 40.6053 145.605 43.0648 143.01 44.7952C140.414 46.5256 137.363 47.4493 134.241 47.4493C130.056 47.4469 126.043 45.787 123.083 42.8342C120.124 39.8813 118.46 35.8771 118.458 31.7012ZM124.683 31.7012C124.683 33.5873 125.244 35.4311 126.294 36.9994C127.344 38.5677 128.837 39.79 130.583 40.5118C132.33 41.2336 134.252 41.4225 136.106 41.0545C137.96 40.6865 139.663 39.7783 141 38.4446C142.336 37.1108 143.247 35.4116 143.615 33.5617C143.984 31.7118 143.795 29.7943 143.071 28.0517C142.348 26.3091 141.123 24.8197 139.551 23.7718C137.979 22.7239 136.131 22.1646 134.241 22.1646C131.709 22.1738 129.283 23.1816 127.493 24.968C125.702 26.7545 124.693 29.1748 124.683 31.7012Z" fill="white"/>
<path d="M171.338 19.0896C171.336 19.9207 171.004 20.7171 170.415 21.3048C169.826 21.8925 169.028 22.2237 168.195 22.226H163.728V44.3742C163.728 45.1979 163.4 45.9879 162.816 46.5703C162.233 47.1528 161.441 47.48 160.615 47.48C159.79 47.48 158.998 47.1528 158.414 46.5703C157.831 45.9879 157.503 45.1979 157.503 44.3742V22.226H152.996C152.174 22.2088 151.391 21.8708 150.816 21.2844C150.241 20.6981 149.919 19.9101 149.919 19.0896C149.919 18.2752 150.243 17.4942 150.82 16.9183C151.397 16.3424 152.18 16.0189 152.996 16.0189H157.52V3.46433C157.52 2.64063 157.848 1.85068 158.432 1.26823C159.016 0.685793 159.807 0.358582 160.633 0.358582C161.459 0.358582 162.25 0.685793 162.834 1.26823C163.418 1.85068 163.746 2.64063 163.746 3.46433V16.0102H168.212C168.62 16.0073 169.025 16.0847 169.403 16.2379C169.781 16.3911 170.125 16.6172 170.415 16.9033C170.706 17.1893 170.937 17.5296 171.095 17.9047C171.253 18.2799 171.336 18.6825 171.338 19.0896Z" fill="white"/>
<path d="M202.777 31.7012C202.774 32.109 202.69 32.5121 202.53 32.8874C202.37 33.2627 202.137 33.6028 201.845 33.8881C201.553 34.1734 201.207 34.3984 200.828 34.55C200.448 34.7017 200.043 34.7771 199.634 34.7719H177.942C178.588 36.6554 179.808 38.2905 181.431 39.4489C183.054 40.6073 184.999 41.2311 186.994 41.2334C189.495 41.2693 191.948 40.5473 194.028 39.1629C195.475 38.2198 197.422 39.0971 198.179 40.6061C198.935 42.1151 198.117 43.804 196.671 44.7471C192.52 47.5063 189.311 47.4449 186.998 47.4449C182.812 47.4449 178.798 45.7857 175.838 42.8324C172.878 39.879 171.215 35.8735 171.215 31.6968C171.215 27.5202 172.878 23.5146 175.838 20.5612C178.798 17.6079 182.812 15.9487 186.998 15.9487C194.604 15.9531 202.777 21.4715 202.777 31.7012ZM177.942 28.5647H196.112C194.793 24.1781 190.766 22.1646 186.994 22.1646C185.007 22.1669 183.07 22.7836 181.449 23.9298C179.828 25.0759 178.603 26.6952 177.942 28.5647Z" fill="white"/>
<path d="M206.549 31.7626C206.544 29.6985 206.946 27.6534 207.733 25.7445C208.52 23.8355 209.676 22.1001 211.136 20.6374C212.596 19.1748 214.33 18.0137 216.24 17.2204C218.15 16.4272 220.198 16.0174 222.267 16.0145C225.039 16.0164 227.762 16.7412 230.166 18.117C232.571 19.4928 234.573 21.4718 235.975 23.8579C236.383 24.5747 236.494 25.4228 236.283 26.22C236.071 27.0173 235.555 27.7 234.845 28.1217C234.123 28.5151 233.277 28.6175 232.481 28.4078C231.686 28.1981 231.001 27.6923 230.567 26.9943C229.514 25.175 227.888 23.7531 225.943 22.949C223.997 22.1449 221.84 22.0034 219.806 22.5466C217.771 23.0898 215.974 24.2872 214.69 25.9534C213.407 27.6195 212.711 29.6614 212.709 31.7626C212.73 34.2855 213.743 36.6992 215.531 38.4832C217.319 40.2672 219.738 41.2785 222.267 41.2992C223.871 41.3058 225.45 40.9069 226.858 40.1399C228.265 39.3728 229.455 38.2625 230.317 36.9125C230.779 36.2275 231.488 35.7469 232.296 35.5712C233.105 35.3954 233.95 35.5381 234.656 35.9694C235.347 36.4279 235.828 37.1412 235.993 37.9528C236.158 38.7645 235.993 39.6082 235.535 40.299C233.694 43.156 230.974 45.3406 227.784 46.5252C224.593 47.7097 221.104 47.8305 217.838 46.8694C214.573 45.9083 211.708 43.9171 209.673 41.1942C207.638 38.4714 206.542 35.1637 206.549 31.767V31.7626Z" fill="white"/>
<path d="M267.981 29.7535V44.3084C267.979 45.14 267.647 45.9368 267.058 46.5252C266.469 47.1136 265.671 47.4458 264.838 47.4493C264.428 47.4458 264.024 47.3618 263.648 47.2018C263.271 47.0419 262.93 46.8093 262.644 46.5174C262.358 46.2255 262.133 45.8801 261.981 45.501C261.829 45.1219 261.754 44.7166 261.76 44.3084V29.7535C261.712 27.7638 260.886 25.8715 259.459 24.4811C258.032 23.0907 256.116 22.3124 254.121 22.3124C252.126 22.3124 250.211 23.0907 248.783 24.4811C247.356 25.8715 246.53 27.7638 246.482 29.7535V44.3084C246.482 45.1321 246.154 45.9221 245.571 46.5045C244.987 47.087 244.195 47.4142 243.37 47.4142C242.544 47.4142 241.752 47.087 241.169 46.5045C240.585 45.9221 240.257 45.1321 240.257 44.3084V3.46433C240.257 2.64063 240.585 1.85067 241.169 1.26823C241.752 0.685793 242.544 0.358582 243.37 0.358582C244.195 0.358582 244.987 0.685793 245.571 1.26823C246.154 1.85067 246.482 2.64063 246.482 3.46433V18.2122C248.738 16.7263 251.385 15.9402 254.088 15.9531C257.763 15.9519 261.288 17.4036 263.891 19.9901C266.495 22.5767 267.966 26.0874 267.981 29.7535Z" fill="white"/>
<path d="M289.924 19.0896C289.921 19.9207 289.589 20.7171 289 21.3048C288.411 21.8925 287.613 22.2237 286.78 22.226H282.318V44.3742C282.318 45.1979 281.99 45.9879 281.406 46.5703C280.822 47.1528 280.031 47.48 279.205 47.48C278.38 47.48 277.588 47.1528 277.004 46.5703C276.42 45.9879 276.092 45.1979 276.092 44.3742V22.226H271.564C270.742 22.2088 269.959 21.8708 269.384 21.2844C268.809 20.6981 268.486 19.9101 268.487 19.0896C268.487 18.2752 268.811 17.4942 269.388 16.9183C269.965 16.3424 270.748 16.0189 271.564 16.0189H276.097V3.46433C276.097 2.64063 276.425 1.85068 277.009 1.26823C277.592 0.685793 278.384 0.358582 279.21 0.358582C280.035 0.358582 280.827 0.685793 281.411 1.26823C281.994 1.85068 282.322 2.64063 282.322 3.46433V16.0102H286.78C287.191 16.0014 287.599 16.0746 287.98 16.2255C288.362 16.3765 288.709 16.602 289.002 16.889C289.295 17.1759 289.528 17.5185 289.686 17.8964C289.844 18.2743 289.925 18.68 289.924 19.0896Z" fill="white"/>
<path d="M289.801 31.7012C289.801 28.5863 290.726 25.5414 292.461 22.9516C294.195 20.3617 296.661 18.3432 299.545 17.1514C302.429 15.9596 305.603 15.648 308.665 16.256C311.726 16.864 314.539 18.3643 316.746 20.5672C318.953 22.77 320.456 25.5765 321.064 28.6316C321.673 31.6867 321.36 34.8532 320.164 37.7307C318.969 40.6083 316.945 43.0675 314.349 44.7974C311.753 46.5273 308.701 47.4501 305.579 47.4493C301.395 47.4458 297.383 45.7853 294.424 42.8326C291.466 39.8799 289.803 35.8764 289.801 31.7012ZM296.026 31.7012C296.026 33.5875 296.587 35.4315 297.637 36.9999C298.688 38.5682 300.18 39.7906 301.927 40.5122C303.674 41.2339 305.596 41.4225 307.45 41.0542C309.304 40.6859 311.007 39.7772 312.344 38.443C313.68 37.1089 314.59 35.4092 314.959 33.559C315.327 31.7088 315.137 29.7912 314.413 28.0486C313.689 26.3061 312.463 24.817 310.891 23.7697C309.318 22.7223 307.47 22.1637 305.579 22.1646C303.048 22.175 300.624 23.1832 298.834 24.9696C297.045 26.7559 296.035 29.1755 296.026 31.7012Z" fill="white"/>
<path d="M344 19.0896C343.997 19.9212 343.664 20.7176 343.074 21.3052C342.484 21.8927 341.686 22.2238 340.852 22.2261C339.597 22.2261 338.355 22.4728 337.195 22.9521C336.036 23.4314 334.982 24.1339 334.095 25.0196C333.208 25.9052 332.504 26.9565 332.025 28.1135C331.545 29.2705 331.298 30.5105 331.299 31.7627V44.3743C331.299 45.198 330.971 45.9879 330.387 46.5704C329.803 47.1528 329.012 47.48 328.186 47.48C327.36 47.48 326.569 47.1528 325.985 46.5704C325.401 45.9879 325.073 45.198 325.073 44.3743V31.7627C325.076 27.5875 326.739 23.5839 329.697 20.6312C332.656 17.6785 336.668 16.0181 340.852 16.0146C341.262 16.0088 341.668 16.0839 342.048 16.2356C342.429 16.3872 342.775 16.6125 343.068 16.8983C343.36 17.1841 343.593 17.5249 343.753 17.901C343.913 18.2771 343.997 18.6811 344 19.0896Z" fill="white"/>
</g>
<defs>
<clipPath id="clip0">
<rect width="344" height="47.117" fill="white" transform="translate(0 0.393555)"/>
</clipPath>
</defs>
</svg>
