<svg width="322" height="105" viewBox="0 0 322 105" fill="none" xmlns="http://www.w3.org/2000/svg">
<mask id="path-1-inside-1" fill="white">
<path d="M2.04724 103.985H0.438695C0.146232 103.985 0 103.839 0 103.546V87.9622C0 87.6697 0.146232 87.5235 0.438695 87.5235H2.04724C2.3397 87.5235 2.48593 87.6697 2.48593 87.9622V96.0884H2.56949C2.73661 95.6289 2.9664 95.2111 3.23798 94.8141L8.12628 87.9831C8.31429 87.6906 8.58586 87.5444 8.94099 87.5444H10.842C11.1971 87.5444 11.2598 87.7115 11.03 88.0248L6.03726 94.7932L11.6567 103.463C11.8656 103.797 11.7612 103.964 11.3434 103.964H9.90194C9.44235 103.964 9.10811 103.818 8.9201 103.525L4.49138 96.5898L2.46504 98.9713V103.525C2.48593 103.839 2.3397 103.985 2.04724 103.985ZM20.0337 103.985H18.1953C17.9655 103.985 17.8611 103.839 17.9447 103.546L22.3943 87.9622C22.4778 87.6697 22.6867 87.5235 23.0001 87.5235H25.5487C25.8829 87.5235 26.0918 87.6697 26.1545 87.9622L30.6041 103.546C30.6668 103.839 30.5832 103.985 30.3325 103.985H28.5151C28.3688 103.985 28.2435 103.964 28.1808 103.901C28.139 103.839 28.0973 103.713 28.0555 103.546L27.0736 100.225H21.4542L20.4724 103.546C20.4306 103.839 20.2635 103.985 20.0337 103.985ZM24.2326 89.9885L21.9764 98.1775H26.5932L24.3162 89.9885H24.2326ZM49.5097 87.5444H52.3716C52.6641 87.5444 52.8103 87.6906 52.8103 87.9831V103.567C52.8103 103.86 52.6641 104.006 52.3716 104.006H50.784C50.4915 104.006 50.3453 103.86 50.3453 103.567V90.657H50.2408L46.9193 100.016C46.8148 100.287 46.6268 100.434 46.3553 100.434H44.7258C44.4752 100.434 44.2871 100.287 44.1827 100.016L40.7985 90.6152H40.694V103.567C40.694 103.734 40.6523 103.86 40.5896 103.922C40.5478 103.964 40.4225 104.006 40.2553 104.006H38.6886C38.3961 104.006 38.2499 103.86 38.2499 103.567V87.9831C38.2499 87.6906 38.3961 87.5444 38.6886 87.5444H41.5505C41.7385 87.5444 41.8848 87.6279 41.9683 87.8159L45.4779 97.697H45.6032L49.1337 87.8159C49.1754 87.6279 49.3008 87.5444 49.5097 87.5444ZM64.279 87.9622V103.546C64.279 103.839 64.1328 103.985 63.8403 103.985H62.2318C61.9393 103.985 61.7931 103.839 61.7931 103.546V87.9622C61.7931 87.6697 61.9393 87.5235 62.2318 87.5235H63.8403C64.1328 87.5444 64.279 87.6906 64.279 87.9622ZM81.973 103.985H73.6796C73.3871 103.985 73.2409 103.839 73.2409 103.546V87.9622C73.2409 87.6697 73.3871 87.5235 73.6796 87.5235H75.2881C75.5806 87.5235 75.7268 87.6697 75.7268 87.9622V101.499C75.7268 101.666 75.8313 101.75 76.0402 101.75H81.973C82.2654 101.75 82.4117 101.896 82.4117 102.209V103.546C82.4117 103.839 82.2654 103.985 81.973 103.985ZM90.7678 103.985H88.9294C88.6996 103.985 88.5952 103.839 88.6787 103.546L93.1283 87.9622C93.2119 87.6697 93.4208 87.5235 93.7342 87.5235H96.2828C96.617 87.5235 96.8259 87.6697 96.8886 87.9622L101.338 103.546C101.401 103.839 101.317 103.985 101.067 103.985H99.2492C99.1029 103.985 98.9776 103.964 98.9149 103.901C98.8731 103.839 98.8314 103.713 98.7896 103.546L97.8077 100.225H92.1883L91.2064 103.546C91.1647 103.839 91.0184 103.985 90.7678 103.985ZM94.9667 89.9885L92.7314 98.1775H97.369L95.092 89.9885H94.9667ZM119.91 99.9949V99.3264C119.91 99.0339 120.056 98.8877 120.348 98.8877H121.978C122.27 98.8877 122.416 99.0339 122.416 99.3264V99.786C122.416 100.496 122.563 101.019 122.876 101.353C123.21 101.666 123.732 101.812 124.464 101.812H126.218C126.95 101.812 127.472 101.645 127.806 101.332C128.14 100.998 128.286 100.454 128.286 99.7024V99.1175C128.286 98.5744 128.078 98.1357 127.639 97.8432C127.221 97.509 126.72 97.321 126.114 97.2374C125.508 97.1329 124.819 97.0076 124.088 96.8196C123.356 96.6525 122.688 96.4436 122.061 96.2347C121.455 96.0049 120.933 95.5871 120.494 94.9813C120.077 94.3754 119.889 93.5816 119.889 92.6207V91.5553C119.889 90.3019 120.244 89.3409 120.933 88.6306C121.643 87.9204 122.625 87.5653 123.879 87.5653H126.594C127.848 87.5653 128.83 87.9204 129.54 88.6306C130.25 89.32 130.605 90.3019 130.605 91.5553V92.1193C130.605 92.4118 130.459 92.558 130.167 92.558H128.537C128.245 92.558 128.098 92.4118 128.098 92.1193V91.7851C128.098 91.0539 127.931 90.5317 127.618 90.2183C127.305 89.8841 126.782 89.7378 126.051 89.7378H124.443C123.712 89.7378 123.189 89.9049 122.855 90.2392C122.542 90.5734 122.395 91.1166 122.395 91.9313V92.7251C122.395 93.4981 122.959 94.0203 124.067 94.2919C124.568 94.4172 125.09 94.5217 125.675 94.6052C126.281 94.6888 126.866 94.8141 127.472 94.9813C128.078 95.1484 128.621 95.3782 129.101 95.6706C129.603 95.9422 129.999 96.36 130.313 96.9449C130.626 97.509 130.772 98.1983 130.772 99.0131V100.016C130.772 101.269 130.417 102.251 129.707 102.961C129.018 103.651 128.036 104.006 126.782 104.006H123.941C122.688 104.006 121.706 103.651 120.996 102.961C120.265 102.209 119.91 101.248 119.91 99.9949ZM141.406 103.985H139.797C139.505 103.985 139.358 103.839 139.358 103.546V87.9622C139.358 87.6697 139.505 87.5235 139.797 87.5235H145.876C147.129 87.5235 148.09 87.8786 148.801 88.568C149.49 89.2574 149.845 90.2183 149.845 91.4926V94.1457C149.845 95.3991 149.49 96.36 148.801 97.0703C148.111 97.7597 147.129 98.1148 145.876 98.1148H142.137C141.928 98.1148 141.823 98.1983 141.823 98.3655V103.525C141.844 103.839 141.698 103.985 141.406 103.985ZM142.116 95.9213H145.521C146.732 95.9213 147.338 95.2946 147.338 94.0203V91.5971C147.338 90.3436 146.732 89.6961 145.521 89.6961H142.116C141.928 89.6961 141.844 89.7796 141.844 89.9467V95.6706C141.844 95.8378 141.928 95.9213 142.116 95.9213ZM167.372 103.985H159.058C158.765 103.985 158.619 103.839 158.619 103.546V95.8169L156.906 96.7987C156.781 96.8614 156.676 96.8823 156.593 96.8196C156.509 96.7778 156.467 96.6734 156.467 96.548V95.2528C156.467 95.0021 156.614 94.7933 156.906 94.6052L158.619 93.6652V87.9831C158.619 87.6906 158.765 87.5444 159.058 87.5444H160.687C160.98 87.5444 161.126 87.6906 161.126 87.9831V92.2029L163.403 90.9286C163.695 90.8032 163.842 90.8868 163.842 91.1792V92.5162C163.842 92.7669 163.695 92.9967 163.403 93.1847L161.126 94.459V101.52C161.126 101.687 161.209 101.771 161.397 101.771H167.351C167.623 101.771 167.769 101.917 167.769 102.23V103.567C167.79 103.839 167.644 103.985 167.372 103.985ZM180.261 101.812H182.496C183.75 101.812 184.356 101.186 184.356 99.9113V91.5971C184.356 90.3436 183.729 89.6961 182.496 89.6961H180.261C179.029 89.6961 178.423 90.3228 178.423 91.5971V99.9113C178.423 101.186 179.029 101.812 180.261 101.812ZM182.872 103.985H179.906C178.653 103.985 177.671 103.63 176.961 102.94C176.271 102.251 175.937 101.269 175.937 100.016V91.4926C175.937 90.2392 176.271 89.2574 176.961 88.568C177.65 87.8786 178.632 87.5235 179.906 87.5235H182.872C184.126 87.5235 185.108 87.8786 185.818 88.568C186.507 89.2574 186.862 90.2183 186.862 91.4926V100.016C186.862 101.269 186.507 102.23 185.818 102.94C185.108 103.63 184.126 103.985 182.872 103.985ZM202.091 103.985H199.125C197.872 103.985 196.89 103.63 196.18 102.94C195.49 102.251 195.156 101.269 195.156 100.016V91.4926C195.156 90.2392 195.49 89.2574 196.18 88.568C196.869 87.8786 197.851 87.5235 199.125 87.5235H202.091C203.345 87.5235 204.306 87.8786 205.016 88.568C205.705 89.2574 206.061 90.2183 206.061 91.4926V92.7251C206.061 93.0385 205.914 93.1847 205.601 93.1847H203.992C203.7 93.1847 203.554 93.0385 203.554 92.7251V91.5971C203.554 90.3436 202.948 89.6961 201.715 89.6961H199.48C198.248 89.6961 197.642 90.3228 197.642 91.5971V99.9113C197.642 101.165 198.248 101.812 199.48 101.812H201.715C202.948 101.812 203.554 101.186 203.554 99.9113V98.7833C203.554 98.4699 203.7 98.3237 203.992 98.3237H205.601C205.914 98.3237 206.061 98.4699 206.061 98.7833V100.016C206.061 101.269 205.705 102.23 205.016 102.94C204.306 103.63 203.345 103.985 202.091 103.985ZM216.401 103.985H214.793C214.5 103.985 214.354 103.839 214.354 103.546V87.9622C214.354 87.6697 214.5 87.5235 214.793 87.5235H216.401C216.694 87.5235 216.84 87.6697 216.84 87.9622V94.3546C216.84 94.5217 216.944 94.6052 217.153 94.6052H222.543C222.71 94.6052 222.794 94.5217 222.794 94.3546V87.9622C222.794 87.6697 222.94 87.5235 223.232 87.5235H224.862C225.154 87.5235 225.3 87.6697 225.3 87.9622V103.546C225.3 103.839 225.154 103.985 224.862 103.985H223.232C222.94 103.985 222.794 103.839 222.794 103.546V97.0703C222.794 96.9032 222.71 96.8196 222.543 96.8196H217.153C216.944 96.8196 216.84 96.9032 216.84 97.0703V103.546C216.84 103.839 216.694 103.985 216.401 103.985ZM235.056 103.985H233.218C232.967 103.985 232.884 103.839 232.967 103.546L237.417 87.9622C237.5 87.6697 237.709 87.5235 238.023 87.5235H240.571C240.905 87.5235 241.114 87.6697 241.177 87.9622L245.627 103.546C245.689 103.839 245.606 103.985 245.355 103.985H243.538C243.391 103.985 243.266 103.964 243.203 103.901C243.141 103.839 243.099 103.713 243.078 103.546L242.096 100.225H236.477L235.516 103.546C235.432 103.839 235.286 103.985 235.056 103.985ZM239.255 89.9885L236.999 98.1775H241.637L239.359 89.9885H239.255ZM255.34 103.985H253.732C253.439 103.985 253.293 103.839 253.293 103.546V87.9622C253.293 87.6697 253.439 87.5235 253.732 87.5235H259.727C260.981 87.5235 261.942 87.8786 262.652 88.5889C263.362 89.2782 263.717 90.2601 263.717 91.5135V93.6652C263.717 95.6289 262.903 96.8614 261.294 97.3836V97.4881L264.135 103.484C264.323 103.818 264.219 103.985 263.801 103.985H262.213C261.816 103.985 261.545 103.839 261.419 103.546L258.683 97.6552H256.092C255.884 97.6552 255.779 97.7388 255.779 97.9059V103.525C255.758 103.839 255.612 103.985 255.34 103.985ZM256.051 95.6288H259.31C260.563 95.6288 261.211 95.0022 261.211 93.7696V91.6179C261.211 90.3645 260.584 89.7169 259.31 89.7169H256.051C255.863 89.7169 255.779 89.8005 255.779 89.9676V95.3573C255.758 95.5244 255.863 95.6288 256.051 95.6288ZM271.948 99.9949V99.3264C271.948 99.0339 272.094 98.8877 272.387 98.8877H274.016C274.309 98.8877 274.455 99.0339 274.455 99.3264V99.786C274.455 100.496 274.601 101.019 274.915 101.353C275.249 101.666 275.771 101.812 276.502 101.812H278.257C278.988 101.812 279.531 101.645 279.845 101.332C280.179 100.998 280.325 100.454 280.325 99.7024V99.1175C280.325 98.5744 280.116 98.1357 279.678 97.8432C279.26 97.509 278.758 97.321 278.152 97.2374C277.547 97.1329 276.857 97.0076 276.126 96.8196C275.395 96.6525 274.727 96.4436 274.1 96.2347C273.494 96.0049 272.972 95.5871 272.533 94.9813C272.115 94.3754 271.927 93.5816 271.927 92.6207V91.5553C271.927 90.3019 272.282 89.3409 272.972 88.6306C273.682 87.9204 274.664 87.5653 275.917 87.5653H278.633C279.886 87.5653 280.868 87.9204 281.579 88.6306C282.289 89.32 282.644 90.3019 282.644 91.5553V92.1193C282.644 92.4118 282.498 92.558 282.205 92.558H280.576C280.283 92.558 280.137 92.4118 280.137 92.1193V91.7851C280.137 91.0539 279.97 90.5317 279.657 90.2183C279.343 89.8841 278.821 89.7378 278.09 89.7378H276.481C275.75 89.7378 275.207 89.9049 274.894 90.2392C274.58 90.5734 274.434 91.1166 274.434 91.9313V92.7251C274.434 93.4981 274.998 94.0203 276.105 94.2919C276.607 94.4172 277.129 94.5217 277.714 94.6052C278.32 94.6888 278.905 94.8141 279.51 94.9813C280.116 95.1484 280.659 95.3782 281.14 95.6706C281.641 95.9422 282.038 96.36 282.351 96.9449C282.665 97.509 282.811 98.1983 282.811 99.0131V100.016C282.811 101.269 282.456 102.251 281.746 102.961C281.056 103.651 280.074 104.006 278.821 104.006H275.959C274.727 104.006 273.724 103.651 273.014 102.961C272.324 102.209 271.948 101.248 271.948 99.9949ZM293.444 103.985H291.836C291.543 103.985 291.397 103.839 291.397 103.546V87.9622C291.397 87.6697 291.543 87.5235 291.836 87.5235H293.444C293.737 87.5235 293.883 87.6697 293.883 87.9622V96.0884H293.966C294.133 95.6289 294.363 95.2111 294.635 94.8141L299.523 87.9831C299.711 87.6906 299.983 87.5444 300.338 87.5444H302.239C302.594 87.5444 302.657 87.7115 302.427 88.0248L297.434 94.7932L303.054 103.463C303.262 103.797 303.158 103.964 302.74 103.964H301.299C300.839 103.964 300.505 103.818 300.338 103.525L295.909 96.5898L293.883 98.9713V103.525C293.883 103.839 293.737 103.985 293.444 103.985ZM311.41 103.985H309.571C309.321 103.985 309.258 103.839 309.321 103.546L313.77 87.9622C313.854 87.6697 314.063 87.5235 314.376 87.5235H316.925C317.259 87.5235 317.468 87.6697 317.53 87.9622L321.98 103.546C322.043 103.839 321.959 103.985 321.708 103.985H319.891C319.745 103.985 319.619 103.964 319.557 103.901C319.515 103.839 319.473 103.713 319.431 103.546L318.45 100.225H312.83L311.848 103.546C311.807 103.839 311.66 103.985 311.41 103.985ZM315.609 89.9885L313.352 98.1775H317.99L315.713 89.9885H315.609Z"/>
</mask>
<path d="M2.04724 103.985H0.438695C0.146232 103.985 0 103.839 0 103.546V87.9622C0 87.6697 0.146232 87.5235 0.438695 87.5235H2.04724C2.3397 87.5235 2.48593 87.6697 2.48593 87.9622V96.0884H2.56949C2.73661 95.6289 2.9664 95.2111 3.23798 94.8141L8.12628 87.9831C8.31429 87.6906 8.58586 87.5444 8.94099 87.5444H10.842C11.1971 87.5444 11.2598 87.7115 11.03 88.0248L6.03726 94.7932L11.6567 103.463C11.8656 103.797 11.7612 103.964 11.3434 103.964H9.90194C9.44235 103.964 9.10811 103.818 8.9201 103.525L4.49138 96.5898L2.46504 98.9713V103.525C2.48593 103.839 2.3397 103.985 2.04724 103.985ZM20.0337 103.985H18.1953C17.9655 103.985 17.8611 103.839 17.9447 103.546L22.3943 87.9622C22.4778 87.6697 22.6867 87.5235 23.0001 87.5235H25.5487C25.8829 87.5235 26.0918 87.6697 26.1545 87.9622L30.6041 103.546C30.6668 103.839 30.5832 103.985 30.3325 103.985H28.5151C28.3688 103.985 28.2435 103.964 28.1808 103.901C28.139 103.839 28.0973 103.713 28.0555 103.546L27.0736 100.225H21.4542L20.4724 103.546C20.4306 103.839 20.2635 103.985 20.0337 103.985ZM24.2326 89.9885L21.9764 98.1775H26.5932L24.3162 89.9885H24.2326ZM49.5097 87.5444H52.3716C52.6641 87.5444 52.8103 87.6906 52.8103 87.9831V103.567C52.8103 103.86 52.6641 104.006 52.3716 104.006H50.784C50.4915 104.006 50.3453 103.86 50.3453 103.567V90.657H50.2408L46.9193 100.016C46.8148 100.287 46.6268 100.434 46.3553 100.434H44.7258C44.4752 100.434 44.2871 100.287 44.1827 100.016L40.7985 90.6152H40.694V103.567C40.694 103.734 40.6523 103.86 40.5896 103.922C40.5478 103.964 40.4225 104.006 40.2553 104.006H38.6886C38.3961 104.006 38.2499 103.86 38.2499 103.567V87.9831C38.2499 87.6906 38.3961 87.5444 38.6886 87.5444H41.5505C41.7385 87.5444 41.8848 87.6279 41.9683 87.8159L45.4779 97.697H45.6032L49.1337 87.8159C49.1754 87.6279 49.3008 87.5444 49.5097 87.5444ZM64.279 87.9622V103.546C64.279 103.839 64.1328 103.985 63.8403 103.985H62.2318C61.9393 103.985 61.7931 103.839 61.7931 103.546V87.9622C61.7931 87.6697 61.9393 87.5235 62.2318 87.5235H63.8403C64.1328 87.5444 64.279 87.6906 64.279 87.9622ZM81.973 103.985H73.6796C73.3871 103.985 73.2409 103.839 73.2409 103.546V87.9622C73.2409 87.6697 73.3871 87.5235 73.6796 87.5235H75.2881C75.5806 87.5235 75.7268 87.6697 75.7268 87.9622V101.499C75.7268 101.666 75.8313 101.75 76.0402 101.75H81.973C82.2654 101.75 82.4117 101.896 82.4117 102.209V103.546C82.4117 103.839 82.2654 103.985 81.973 103.985ZM90.7678 103.985H88.9294C88.6996 103.985 88.5952 103.839 88.6787 103.546L93.1283 87.9622C93.2119 87.6697 93.4208 87.5235 93.7342 87.5235H96.2828C96.617 87.5235 96.8259 87.6697 96.8886 87.9622L101.338 103.546C101.401 103.839 101.317 103.985 101.067 103.985H99.2492C99.1029 103.985 98.9776 103.964 98.9149 103.901C98.8731 103.839 98.8314 103.713 98.7896 103.546L97.8077 100.225H92.1883L91.2064 103.546C91.1647 103.839 91.0184 103.985 90.7678 103.985ZM94.9667 89.9885L92.7314 98.1775H97.369L95.092 89.9885H94.9667ZM119.91 99.9949V99.3264C119.91 99.0339 120.056 98.8877 120.348 98.8877H121.978C122.27 98.8877 122.416 99.0339 122.416 99.3264V99.786C122.416 100.496 122.563 101.019 122.876 101.353C123.21 101.666 123.732 101.812 124.464 101.812H126.218C126.95 101.812 127.472 101.645 127.806 101.332C128.14 100.998 128.286 100.454 128.286 99.7024V99.1175C128.286 98.5744 128.078 98.1357 127.639 97.8432C127.221 97.509 126.72 97.321 126.114 97.2374C125.508 97.1329 124.819 97.0076 124.088 96.8196C123.356 96.6525 122.688 96.4436 122.061 96.2347C121.455 96.0049 120.933 95.5871 120.494 94.9813C120.077 94.3754 119.889 93.5816 119.889 92.6207V91.5553C119.889 90.3019 120.244 89.3409 120.933 88.6306C121.643 87.9204 122.625 87.5653 123.879 87.5653H126.594C127.848 87.5653 128.83 87.9204 129.54 88.6306C130.25 89.32 130.605 90.3019 130.605 91.5553V92.1193C130.605 92.4118 130.459 92.558 130.167 92.558H128.537C128.245 92.558 128.098 92.4118 128.098 92.1193V91.7851C128.098 91.0539 127.931 90.5317 127.618 90.2183C127.305 89.8841 126.782 89.7378 126.051 89.7378H124.443C123.712 89.7378 123.189 89.9049 122.855 90.2392C122.542 90.5734 122.395 91.1166 122.395 91.9313V92.7251C122.395 93.4981 122.959 94.0203 124.067 94.2919C124.568 94.4172 125.09 94.5217 125.675 94.6052C126.281 94.6888 126.866 94.8141 127.472 94.9813C128.078 95.1484 128.621 95.3782 129.101 95.6706C129.603 95.9422 129.999 96.36 130.313 96.9449C130.626 97.509 130.772 98.1983 130.772 99.0131V100.016C130.772 101.269 130.417 102.251 129.707 102.961C129.018 103.651 128.036 104.006 126.782 104.006H123.941C122.688 104.006 121.706 103.651 120.996 102.961C120.265 102.209 119.91 101.248 119.91 99.9949ZM141.406 103.985H139.797C139.505 103.985 139.358 103.839 139.358 103.546V87.9622C139.358 87.6697 139.505 87.5235 139.797 87.5235H145.876C147.129 87.5235 148.09 87.8786 148.801 88.568C149.49 89.2574 149.845 90.2183 149.845 91.4926V94.1457C149.845 95.3991 149.49 96.36 148.801 97.0703C148.111 97.7597 147.129 98.1148 145.876 98.1148H142.137C141.928 98.1148 141.823 98.1983 141.823 98.3655V103.525C141.844 103.839 141.698 103.985 141.406 103.985ZM142.116 95.9213H145.521C146.732 95.9213 147.338 95.2946 147.338 94.0203V91.5971C147.338 90.3436 146.732 89.6961 145.521 89.6961H142.116C141.928 89.6961 141.844 89.7796 141.844 89.9467V95.6706C141.844 95.8378 141.928 95.9213 142.116 95.9213ZM167.372 103.985H159.058C158.765 103.985 158.619 103.839 158.619 103.546V95.8169L156.906 96.7987C156.781 96.8614 156.676 96.8823 156.593 96.8196C156.509 96.7778 156.467 96.6734 156.467 96.548V95.2528C156.467 95.0021 156.614 94.7933 156.906 94.6052L158.619 93.6652V87.9831C158.619 87.6906 158.765 87.5444 159.058 87.5444H160.687C160.98 87.5444 161.126 87.6906 161.126 87.9831V92.2029L163.403 90.9286C163.695 90.8032 163.842 90.8868 163.842 91.1792V92.5162C163.842 92.7669 163.695 92.9967 163.403 93.1847L161.126 94.459V101.52C161.126 101.687 161.209 101.771 161.397 101.771H167.351C167.623 101.771 167.769 101.917 167.769 102.23V103.567C167.79 103.839 167.644 103.985 167.372 103.985ZM180.261 101.812H182.496C183.75 101.812 184.356 101.186 184.356 99.9113V91.5971C184.356 90.3436 183.729 89.6961 182.496 89.6961H180.261C179.029 89.6961 178.423 90.3228 178.423 91.5971V99.9113C178.423 101.186 179.029 101.812 180.261 101.812ZM182.872 103.985H179.906C178.653 103.985 177.671 103.63 176.961 102.94C176.271 102.251 175.937 101.269 175.937 100.016V91.4926C175.937 90.2392 176.271 89.2574 176.961 88.568C177.65 87.8786 178.632 87.5235 179.906 87.5235H182.872C184.126 87.5235 185.108 87.8786 185.818 88.568C186.507 89.2574 186.862 90.2183 186.862 91.4926V100.016C186.862 101.269 186.507 102.23 185.818 102.94C185.108 103.63 184.126 103.985 182.872 103.985ZM202.091 103.985H199.125C197.872 103.985 196.89 103.63 196.18 102.94C195.49 102.251 195.156 101.269 195.156 100.016V91.4926C195.156 90.2392 195.49 89.2574 196.18 88.568C196.869 87.8786 197.851 87.5235 199.125 87.5235H202.091C203.345 87.5235 204.306 87.8786 205.016 88.568C205.705 89.2574 206.061 90.2183 206.061 91.4926V92.7251C206.061 93.0385 205.914 93.1847 205.601 93.1847H203.992C203.7 93.1847 203.554 93.0385 203.554 92.7251V91.5971C203.554 90.3436 202.948 89.6961 201.715 89.6961H199.48C198.248 89.6961 197.642 90.3228 197.642 91.5971V99.9113C197.642 101.165 198.248 101.812 199.48 101.812H201.715C202.948 101.812 203.554 101.186 203.554 99.9113V98.7833C203.554 98.4699 203.7 98.3237 203.992 98.3237H205.601C205.914 98.3237 206.061 98.4699 206.061 98.7833V100.016C206.061 101.269 205.705 102.23 205.016 102.94C204.306 103.63 203.345 103.985 202.091 103.985ZM216.401 103.985H214.793C214.5 103.985 214.354 103.839 214.354 103.546V87.9622C214.354 87.6697 214.5 87.5235 214.793 87.5235H216.401C216.694 87.5235 216.84 87.6697 216.84 87.9622V94.3546C216.84 94.5217 216.944 94.6052 217.153 94.6052H222.543C222.71 94.6052 222.794 94.5217 222.794 94.3546V87.9622C222.794 87.6697 222.94 87.5235 223.232 87.5235H224.862C225.154 87.5235 225.3 87.6697 225.3 87.9622V103.546C225.3 103.839 225.154 103.985 224.862 103.985H223.232C222.94 103.985 222.794 103.839 222.794 103.546V97.0703C222.794 96.9032 222.71 96.8196 222.543 96.8196H217.153C216.944 96.8196 216.84 96.9032 216.84 97.0703V103.546C216.84 103.839 216.694 103.985 216.401 103.985ZM235.056 103.985H233.218C232.967 103.985 232.884 103.839 232.967 103.546L237.417 87.9622C237.5 87.6697 237.709 87.5235 238.023 87.5235H240.571C240.905 87.5235 241.114 87.6697 241.177 87.9622L245.627 103.546C245.689 103.839 245.606 103.985 245.355 103.985H243.538C243.391 103.985 243.266 103.964 243.203 103.901C243.141 103.839 243.099 103.713 243.078 103.546L242.096 100.225H236.477L235.516 103.546C235.432 103.839 235.286 103.985 235.056 103.985ZM239.255 89.9885L236.999 98.1775H241.637L239.359 89.9885H239.255ZM255.34 103.985H253.732C253.439 103.985 253.293 103.839 253.293 103.546V87.9622C253.293 87.6697 253.439 87.5235 253.732 87.5235H259.727C260.981 87.5235 261.942 87.8786 262.652 88.5889C263.362 89.2782 263.717 90.2601 263.717 91.5135V93.6652C263.717 95.6289 262.903 96.8614 261.294 97.3836V97.4881L264.135 103.484C264.323 103.818 264.219 103.985 263.801 103.985H262.213C261.816 103.985 261.545 103.839 261.419 103.546L258.683 97.6552H256.092C255.884 97.6552 255.779 97.7388 255.779 97.9059V103.525C255.758 103.839 255.612 103.985 255.34 103.985ZM256.051 95.6288H259.31C260.563 95.6288 261.211 95.0022 261.211 93.7696V91.6179C261.211 90.3645 260.584 89.7169 259.31 89.7169H256.051C255.863 89.7169 255.779 89.8005 255.779 89.9676V95.3573C255.758 95.5244 255.863 95.6288 256.051 95.6288ZM271.948 99.9949V99.3264C271.948 99.0339 272.094 98.8877 272.387 98.8877H274.016C274.309 98.8877 274.455 99.0339 274.455 99.3264V99.786C274.455 100.496 274.601 101.019 274.915 101.353C275.249 101.666 275.771 101.812 276.502 101.812H278.257C278.988 101.812 279.531 101.645 279.845 101.332C280.179 100.998 280.325 100.454 280.325 99.7024V99.1175C280.325 98.5744 280.116 98.1357 279.678 97.8432C279.26 97.509 278.758 97.321 278.152 97.2374C277.547 97.1329 276.857 97.0076 276.126 96.8196C275.395 96.6525 274.727 96.4436 274.1 96.2347C273.494 96.0049 272.972 95.5871 272.533 94.9813C272.115 94.3754 271.927 93.5816 271.927 92.6207V91.5553C271.927 90.3019 272.282 89.3409 272.972 88.6306C273.682 87.9204 274.664 87.5653 275.917 87.5653H278.633C279.886 87.5653 280.868 87.9204 281.579 88.6306C282.289 89.32 282.644 90.3019 282.644 91.5553V92.1193C282.644 92.4118 282.498 92.558 282.205 92.558H280.576C280.283 92.558 280.137 92.4118 280.137 92.1193V91.7851C280.137 91.0539 279.97 90.5317 279.657 90.2183C279.343 89.8841 278.821 89.7378 278.09 89.7378H276.481C275.75 89.7378 275.207 89.9049 274.894 90.2392C274.58 90.5734 274.434 91.1166 274.434 91.9313V92.7251C274.434 93.4981 274.998 94.0203 276.105 94.2919C276.607 94.4172 277.129 94.5217 277.714 94.6052C278.32 94.6888 278.905 94.8141 279.51 94.9813C280.116 95.1484 280.659 95.3782 281.14 95.6706C281.641 95.9422 282.038 96.36 282.351 96.9449C282.665 97.509 282.811 98.1983 282.811 99.0131V100.016C282.811 101.269 282.456 102.251 281.746 102.961C281.056 103.651 280.074 104.006 278.821 104.006H275.959C274.727 104.006 273.724 103.651 273.014 102.961C272.324 102.209 271.948 101.248 271.948 99.9949ZM293.444 103.985H291.836C291.543 103.985 291.397 103.839 291.397 103.546V87.9622C291.397 87.6697 291.543 87.5235 291.836 87.5235H293.444C293.737 87.5235 293.883 87.6697 293.883 87.9622V96.0884H293.966C294.133 95.6289 294.363 95.2111 294.635 94.8141L299.523 87.9831C299.711 87.6906 299.983 87.5444 300.338 87.5444H302.239C302.594 87.5444 302.657 87.7115 302.427 88.0248L297.434 94.7932L303.054 103.463C303.262 103.797 303.158 103.964 302.74 103.964H301.299C300.839 103.964 300.505 103.818 300.338 103.525L295.909 96.5898L293.883 98.9713V103.525C293.883 103.839 293.737 103.985 293.444 103.985ZM311.41 103.985H309.571C309.321 103.985 309.258 103.839 309.321 103.546L313.77 87.9622C313.854 87.6697 314.063 87.5235 314.376 87.5235H316.925C317.259 87.5235 317.468 87.6697 317.53 87.9622L321.98 103.546C322.043 103.839 321.959 103.985 321.708 103.985H319.891C319.745 103.985 319.619 103.964 319.557 103.901C319.515 103.839 319.473 103.713 319.431 103.546L318.45 100.225H312.83L311.848 103.546C311.807 103.839 311.66 103.985 311.41 103.985ZM315.609 89.9885L313.352 98.1775H317.99L315.713 89.9885H315.609Z" stroke="#1B1E1E" stroke-width="4.54367" mask="url(#path-1-inside-1)"/>
<path d="M150.525 22.9039L149.953 23.4753L150.525 24.0466L171.333 44.8407L150.323 65.8508L149.921 65.4481L169.957 45.4118L170.528 44.8405L169.957 44.2692L151.221 25.5337L149.842 24.1545V26.1049V51.5654H149.274V0.807897H149.842V20.8453V22.7958L151.221 21.4166L170.161 2.47698L170.558 2.8703L150.525 22.9039Z" stroke="#1B1E1E" stroke-width="1.61579"/>
</svg>
