<svg width="20" height="20" viewBox="0 0 20 20" fill="none" xmlns="http://www.w3.org/2000/svg">
<g clip-path="url(#clip0)">
<path d="M9.6731 1.61218C14.1179 1.61218 17.734 5.22831 17.734 9.6731C17.734 14.1179 14.1179 17.734 9.6731 17.734C5.22831 17.734 1.61218 14.1179 1.61218 9.6731C1.61218 5.22831 5.22831 1.61218 9.6731 1.61218ZM9.6731 0C4.33113 0 0 4.33113 0 9.6731C0 15.0151 4.33113 19.3462 9.6731 19.3462C15.0151 19.3462 19.3462 15.0151 19.3462 9.6731C19.3462 4.33113 15.0151 0 9.6731 0ZM14.3871 10.0431C14.55 10.0737 14.55 10.3115 14.3879 10.343C12.8507 10.634 9.51511 11.2385 9.11045 11.2385C8.53087 11.2385 8.06172 10.7694 8.06172 10.1898C8.06172 9.77709 8.68242 5.79902 8.96858 4.18845C8.99599 4.03368 9.22008 4.04255 9.24507 4.19974L10.0391 9.22814L14.3871 10.0431Z" fill="black"/>
</g>
<defs>
<clipPath id="clip0">
<rect width="19.3462" height="19.3462" fill="white"/>
</clipPath>
</defs>
</svg>
