<svg width="59" height="59" viewBox="0 0 59 59" fill="none" xmlns="http://www.w3.org/2000/svg">
<g clip-path="url(#clip0)">
<path d="M28.8755 5.71512C41.9755 5.318 52.9563 15.6526 53.3534 28.7526C53.7505 41.8526 43.4159 52.8334 30.3159 53.2305C17.2159 53.6276 6.23517 43.293 5.83806 30.193C5.44094 17.093 15.7756 6.11224 28.8755 5.71512ZM28.7315 0.963586C12.9873 1.44086 0.609251 14.5928 1.08652 30.337C1.5638 46.0812 14.7158 58.4593 30.46 57.982C46.2042 57.5047 58.5822 44.3528 58.1049 28.6086C57.6277 12.8644 44.4757 0.486312 28.7315 0.963586ZM44.8062 21.3499C43.7726 21.8474 42.6536 22.1952 41.4748 22.3736C42.6621 21.6123 43.5515 20.4392 43.9496 19.0598C42.8391 19.764 41.6018 20.289 40.2769 20.5908C39.1781 19.485 37.6337 18.8208 35.954 18.8718C32.1766 18.9863 29.5085 22.5937 30.4723 26.2265C25.6064 26.1291 21.2238 23.9315 18.2324 20.4814C16.7797 23.1555 17.6228 26.5732 20.2795 28.2357C19.3211 28.2338 18.4127 27.9974 17.6107 27.5842C17.6286 30.2945 19.6489 32.7705 22.4789 33.2507C21.6637 33.4989 20.7625 33.5786 19.8401 33.4306C20.6541 35.7315 22.8697 37.3551 25.4274 37.3251C23.0222 39.3289 19.9528 40.2852 16.8365 40.0134C19.4765 41.5956 22.5776 42.4694 25.88 42.3693C36.742 42.04 42.5981 32.6812 41.9781 24.4652C43.0983 23.6085 44.0577 22.5473 44.8062 21.3499Z" fill="url(#paint0_linear)"/>
</g>
<defs>
<linearGradient id="paint0_linear" x1="-27.116" y1="-15.498" x2="50.848" y2="65.8927" gradientUnits="userSpaceOnUse">
<stop stop-color="#57E0F4"/>
<stop offset="0.560132" stop-color="#7F9DF4"/>
<stop offset="1" stop-color="#AE00BE"/>
</linearGradient>
<clipPath id="clip0">
<rect width="57.0446" height="57.0446" fill="white" transform="translate(0.22229 1.82782) rotate(-1.73634)"/>
</clipPath>
</defs>
</svg>
